#N canvas 322 265 450 300 10;
#X obj 20 15 udpreceive 57000;
#X obj 20 78 unpack f f;
#X floatatom 20 99 5 0 0 0 - - -;
#X floatatom 77 99 5 0 0 0 - - -;
#X obj 20 36 unpackOSC;
#X obj 20 57 routeOSC /button;
#X connect 0 0 4 0;
#X connect 1 0 2 0;
#X connect 1 1 3 0;
#X connect 4 0 5 0;
#X connect 5 0 1 0;
