#N canvas 837 227 450 300 10;
#X obj 20 15 udpreceive 57000;
#X obj 20 78 unpack f f;
#X floatatom 20 99 5 0 0 0 - - - 0;
#X floatatom 77 99 5 0 0 0 - - - 0;
#X obj 20 36 unpackOSC;
#X obj 20 57 routeOSC /button;
#X obj 77 119 sel 1;
#X obj 77 140 print;
#X obj 206 196 tgl 15 0 empty empty connected? 17 7 0 10 #fcfcfc #000000
#000000 0 1;
#X msg 316 184 disconnect;
#X msg 217 148 connect localhost 57001;
#X obj 206 175 udpsend;
#X obj 206 106 packOSC;
#X msg 206 85 /hue \$1;
#X obj 209 49 hsl 128 15 0 255 0 0 empty empty hue -2 -8 0 10 #fcfcfc
#000000 #000000 0 1;
#X connect 0 0 4 0;
#X connect 1 0 2 0;
#X connect 1 1 3 0;
#X connect 3 0 6 0;
#X connect 4 0 5 0;
#X connect 5 0 1 0;
#X connect 6 0 7 0;
#X connect 9 0 11 0;
#X connect 10 0 11 0;
#X connect 11 0 8 0;
#X connect 12 0 11 0;
#X connect 13 0 12 0;
#X connect 14 0 13 0;
